HIERARCHY
ROOT Hips
{
	OFFSET 0.000000 100.481300 0.000000
	CHANNELS 6 Xposition Yposition Zposition Xrotation Yrotation Zrotation 
	JOINT Spine
	{
		OFFSET -0.279200 12.230698 -2.892100
		CHANNELS 3 Xrotation Yrotation Zrotation
		JOINT Spine1
		{
			OFFSET -0.232667 10.192268 -1.242267
			CHANNELS 3 Xrotation Yrotation Zrotation
			JOINT Spine1_split
			{
				OFFSET -0.232667 10.192268 -1.242267
				CHANNELS 3 Xrotation Yrotation Zrotation
				JOINT Spine2
				{
					OFFSET -0.232667 10.192268 -1.242267
					CHANNELS 3 Xrotation Yrotation Zrotation
					JOINT Neck
					{
						OFFSET -0.418800 17.814194 8.416900
						CHANNELS 3 Xrotation Yrotation Zrotation
						JOINT Head
						{
							OFFSET 0.000000 7.031097 3.806800
							CHANNELS 3 Xrotation Yrotation Zrotation
							JOINT HeadTop_End
							{
								OFFSET 0.000000 24.646606 12.978600
								CHANNELS 3 Xrotation Yrotation Zrotation
								End Site
								{
									OFFSET 0.000000 0.000000 0.000000
								}
							}
						}
					}
					JOINT LeftShoulder
					{
						OFFSET 8.476499 7.247704 -3.868750
						CHANNELS 3 Xrotation Yrotation Zrotation
						JOINT LeftShoulder_split
						{
							OFFSET 8.476499 7.247704 -3.868750
							CHANNELS 3 Xrotation Yrotation Zrotation
							JOINT LeftArm
							{
								OFFSET 9.308998 -2.777710 0.208600
								CHANNELS 3 Xrotation Yrotation Zrotation
								JOINT LeftForeArm
								{
									OFFSET 29.972298 0.000000 0.000000
									CHANNELS 3 Xrotation Yrotation Zrotation
									JOINT LeftHand
									{
										OFFSET 26.026505 0.000000 0.000000
										CHANNELS 3 Xrotation Yrotation Zrotation
										JOINT LeftHandThumb1
										{
											OFFSET 12.240501 -7.147949 9.207150
											CHANNELS 3 Xrotation Yrotation Zrotation
											JOINT LeftHandThumb2
											{
												OFFSET 4.138618 -2.389435 2.389433
												CHANNELS 3 Xrotation Yrotation Zrotation
												JOINT LeftHandThumb3
												{
													OFFSET 2.726913 -1.574387 1.574386
													CHANNELS 3 Xrotation Yrotation Zrotation
													JOINT LeftHandThumb4
													{
														OFFSET 3.941010 -2.275345 2.275342
														CHANNELS 3 Xrotation Yrotation Zrotation
														End Site
														{
															OFFSET 0.000000 0.000000 0.000000
														}
													}
												}
											}
										}
										JOINT LeftHandIndex1
										{
											OFFSET 24.424698 -1.985611 5.953459
											CHANNELS 3 Xrotation Yrotation Zrotation
											JOINT LeftHandIndex2
											{
												OFFSET 6.426697 0.000000 0.000000
												CHANNELS 3 Xrotation Yrotation Zrotation
												JOINT LeftHandIndex3
												{
													OFFSET 5.337898 0.000000 0.000000
													CHANNELS 3 Xrotation Yrotation Zrotation
													JOINT LeftHandIndex4
													{
														OFFSET 4.409401 0.000000 0.000000
														CHANNELS 3 Xrotation Yrotation Zrotation
														End Site
														{
															OFFSET 0.000000 0.000000 0.000000
														}
													}
												}
											}
										}
										JOINT LeftHandMiddle1
										{
											OFFSET 23.810104 0.000000 0.000000
											CHANNELS 3 Xrotation Yrotation Zrotation
											JOINT LeftHandMiddle2
											{
												OFFSET 7.176498 0.000000 0.000000
												CHANNELS 3 Xrotation Yrotation Zrotation
												JOINT LeftHandMiddle3
												{
													OFFSET 6.774902 0.000000 0.000000
													CHANNELS 3 Xrotation Yrotation Zrotation
													JOINT LeftHandMiddle4
													{
														OFFSET 5.403328 0.000000 0.000000
														CHANNELS 3 Xrotation Yrotation Zrotation
														End Site
														{
															OFFSET 0.000000 0.000000 0.000000
														}
													}
												}
											}
										}
										JOINT LeftHandRing1
										{
											OFFSET 22.908401 -0.839279 -6.020567
											CHANNELS 3 Xrotation Yrotation Zrotation
											JOINT LeftHandRing2
											{
												OFFSET 6.337502 0.000000 0.000000
												CHANNELS 3 Xrotation Yrotation Zrotation
												JOINT LeftHandRing3
												{
													OFFSET 5.779297 0.000000 0.000000
													CHANNELS 3 Xrotation Yrotation Zrotation
													JOINT LeftHandRing4
													{
														OFFSET 4.965698 0.000000 0.000000
														CHANNELS 3 Xrotation Yrotation Zrotation
														End Site
														{
															OFFSET 0.000000 0.000000 0.000000
														}
													}
												}
											}
										}
										JOINT LeftHandPinky1
										{
											OFFSET 20.037003 -1.530319 -10.950146
											CHANNELS 3 Xrotation Yrotation Zrotation
											JOINT LeftHandPinky2
											{
												OFFSET 5.254700 0.000000 0.000000
												CHANNELS 3 Xrotation Yrotation Zrotation
												JOINT LeftHandPinky3
												{
													OFFSET 4.810204 0.000000 0.000000
													CHANNELS 3 Xrotation Yrotation Zrotation
													JOINT LeftHandPinky4
													{
														OFFSET 3.647202 0.000000 0.000000
														CHANNELS 3 Xrotation Yrotation Zrotation
														End Site
														{
															OFFSET 0.000000 0.000000 0.000000
														}
													}
												}
											}
										}
									}
								}
							}
						}
					}
					JOINT RightShoulder
					{
						OFFSET -7.570500 7.247704 -3.868750
						CHANNELS 3 Xrotation Yrotation Zrotation
						JOINT RightShoulder_split
						{
							OFFSET -7.570500 7.247704 -3.868750
							CHANNELS 3 Xrotation Yrotation Zrotation
							JOINT RightArm
							{
								OFFSET -9.308998 -2.777710 0.208500
								CHANNELS 3 Xrotation Yrotation Zrotation
								JOINT RightForeArm
								{
									OFFSET -29.972300 0.000000 0.000000
									CHANNELS 3 Xrotation Yrotation Zrotation
									JOINT RightHand
									{
										OFFSET -26.026505 0.000000 0.000000
										CHANNELS 3 Xrotation Yrotation Zrotation
										JOINT RightHandThumb1
										{
											OFFSET -12.240601 -7.148026 9.207092
											CHANNELS 3 Xrotation Yrotation Zrotation
											JOINT RightHandThumb2
											{
												OFFSET -4.138618 -2.389435 2.389433
												CHANNELS 3 Xrotation Yrotation Zrotation
												JOINT RightHandThumb3
												{
													OFFSET -2.726974 -1.574417 1.574421
													CHANNELS 3 Xrotation Yrotation Zrotation
													JOINT RightHandThumb4
													{
														OFFSET -3.941010 -2.275345 2.275343
														CHANNELS 3 Xrotation Yrotation Zrotation
														End Site
														{
															OFFSET 0.000000 0.000000 0.000000
														}
													}
												}
											}
										}
										JOINT RightHandIndex1
										{
											OFFSET -24.424698 -1.985657 5.953444
											CHANNELS 3 Xrotation Yrotation Zrotation
											JOINT RightHandIndex2
											{
												OFFSET -6.426697 0.000000 0.000000
												CHANNELS 3 Xrotation Yrotation Zrotation
												JOINT RightHandIndex3
												{
													OFFSET -5.337898 0.000000 0.000000
													CHANNELS 3 Xrotation Yrotation Zrotation
													JOINT RightHandIndex4
													{
														OFFSET -4.409401 0.000000 0.000000
														CHANNELS 3 Xrotation Yrotation Zrotation
														End Site
														{
															OFFSET 0.000000 0.000000 0.000000
														}
													}
												}
											}
										}
										JOINT RightHandMiddle1
										{
											OFFSET -23.810097 0.000000 0.000000
											CHANNELS 3 Xrotation Yrotation Zrotation
											JOINT RightHandMiddle2
											{
												OFFSET -7.176498 0.000000 0.000000
												CHANNELS 3 Xrotation Yrotation Zrotation
												JOINT RightHandMiddle3
												{
													OFFSET -6.774902 0.000000 0.000000
													CHANNELS 3 Xrotation Yrotation Zrotation
													JOINT RightHandMiddle4
													{
														OFFSET -5.403328 0.000000 0.000000
														CHANNELS 3 Xrotation Yrotation Zrotation
														End Site
														{
															OFFSET 0.000000 0.000000 0.000000
														}
													}
												}
											}
										}
										JOINT RightHandRing1
										{
											OFFSET -22.908302 -0.839325 -6.020576
											CHANNELS 3 Xrotation Yrotation Zrotation
											JOINT RightHandRing2
											{
												OFFSET -6.337502 0.000000 0.000000
												CHANNELS 3 Xrotation Yrotation Zrotation
												JOINT RightHandRing3
												{
													OFFSET -5.779297 0.000000 0.000000
													CHANNELS 3 Xrotation Yrotation Zrotation
													JOINT RightHandRing4
													{
														OFFSET -4.965698 0.000000 0.000000
														CHANNELS 3 Xrotation Yrotation Zrotation
														End Site
														{
															OFFSET 0.000000 0.000000 0.000000
														}
													}
												}
											}
										}
										JOINT RightHandPinky1
										{
											OFFSET -20.037003 -1.530334 -10.950259
											CHANNELS 3 Xrotation Yrotation Zrotation
											JOINT RightHandPinky2
											{
												OFFSET -5.254700 0.000000 0.000000
												CHANNELS 3 Xrotation Yrotation Zrotation
												JOINT RightHandPinky3
												{
													OFFSET -4.810204 0.000000 0.000000
													CHANNELS 3 Xrotation Yrotation Zrotation
													JOINT RightHandPinky4
													{
														OFFSET -3.647202 0.000000 0.000000
														CHANNELS 3 Xrotation Yrotation Zrotation
														End Site
														{
															OFFSET 0.000000 0.000000 0.000000
														}
													}
												}
											}
										}
									}
								}
							}
						}
					}
				}
			}
		}
	}
	JOINT LeftUpLeg
	{
		OFFSET 15.427100 -6.655098 0.678600
		CHANNELS 3 Xrotation Yrotation Zrotation
		JOINT LeftLeg
		{
			OFFSET 4.081073 -39.591068 13.024000
			CHANNELS 3 Xrotation Yrotation Zrotation
			JOINT LeftFoot
			{
				OFFSET -4.081074 -37.707932 -15.979700
				CHANNELS 3 Xrotation Yrotation Zrotation
				JOINT LeftToeBase
				{
					OFFSET 5.346399 -15.068900 20.645000
					CHANNELS 3 Xrotation Yrotation Zrotation
					JOINT LeftToe_End
					{
						OFFSET 2.754700 0.931300 11.300900
						CHANNELS 3 Xrotation Yrotation Zrotation
						End Site
						{
							OFFSET 0.000000 0.000000 0.000000
						}
					}
				}
			}
		}
	}
	JOINT RightUpLeg
	{
		OFFSET -15.569500 -6.655098 0.678600
		CHANNELS 3 Xrotation Yrotation Zrotation
		JOINT RightLeg
		{
			OFFSET -4.081825 -39.591045 13.023800
			CHANNELS 3 Xrotation Yrotation Zrotation
			JOINT RightFoot
			{
				OFFSET 4.081824 -37.707954 -15.979600
				CHANNELS 3 Xrotation Yrotation Zrotation
				JOINT RightToeBase
				{
					OFFSET -5.346400 -15.068900 20.645000
					CHANNELS 3 Xrotation Yrotation Zrotation
					JOINT RightToe_End
					{
						OFFSET -2.754700 0.931300 11.300900
						CHANNELS 3 Xrotation Yrotation Zrotation
						End Site
						{
							OFFSET 0.000000 0.000000 0.000000
						}
					}
				}
			}
		}
	}
}
MOTION
Frames: 6
Frame Time: 0.016667
0.459970 97.585838 -1.059731 -4.056308 6.159232 -1.736470 4.903251 -0.348256 1.193011 5.814412 -0.121263 1.891506 0.000000 0.000000 0.000000 -4.300226 -0.608023 -1.115062 1.349176 -1.122404 0.966675 4.180455 -0.441329 -1.260371 0.000000 0.000000 -0.000000 1.687484 -7.781255 -3.494998 0.000000 0.000000 0.000000 -0.672290 -2.004148 -76.954164 6.346026 -10.905145 1.751710 -0.215849 -0.744258 3.407803 -3.779732 8.457878 12.348750 7.439534 11.617318 -1.292639 1.145888 8.839767 5.191150 0.000001 -0.000000 -0.000002 2.384571 3.620159 -6.815700 -0.007826 0.227209 -17.103495 0.032052 0.161729 -12.954594 0.000001 -0.000000 -0.000001 -1.935779 5.644689 -11.387010 0.112462 0.632665 -24.767755 0.028388 0.020374 -9.474977 -0.000001 0.000001 0.000001 -4.873136 10.020105 -7.875467 -0.031552 0.293308 -30.086222 0.075496 0.690892 -12.602708 -0.000000 0.000000 0.000000 -6.437545 11.282620 -19.770961 0.029281 0.211155 -30.857640 0.009314 0.123801 -11.459742 0.000000 -0.000000 -0.000002 2.069733 10.207991 4.096300 0.000000 0.000000 0.000000 1.439768 3.704601 75.273903 15.720230 15.338358 -4.555476 -4.669818 -0.553085 -0.689253 -0.464216 -8.992529 -6.084849 7.444312 -11.614475 1.291702 1.121870 -8.850202 -5.182515 -0.000003 0.000001 0.000003 2.415143 -3.647882 8.343601 -0.045909 -0.188504 18.630263 -0.057288 -0.137368 14.481618 0.000001 0.000000 0.000000 -1.985491 -5.700683 13.541332 0.094752 -0.637363 26.924128 -0.057979 -0.061586 11.632761 -0.000003 0.000002 0.000005 -4.982054 -10.062144 10.706123 -0.023914 -0.331173 32.937399 0.106078 -0.688834 15.454589 -0.000001 0.000001 0.000000 -6.468524 -11.288227 23.243651 0.067361 -0.216406 34.333264 -0.042699 -0.081301 14.933102 -0.000000 -0.000001 0.000002 -2.210493 11.088873 10.020120 9.628156 -6.510604 0.256623 -4.555354 0.532581 -6.417524 -0.000017 0.013853 0.000003 -0.000000 0.000001 0.000000 -0.586863 -5.937023 1.787827 8.319597 3.312677 -0.664696 -3.488263 0.140562 0.335756 0.000047 0.000001 0.000002 -0.000000 -0.000000 -0.000000 
0.605613 97.578896 -1.002834 -4.000627 6.041351 -1.761670 4.885905 -0.327064 1.164366 5.821197 -0.106784 1.917306 0.000000 0.000000 0.000000 -4.288224 -0.596360 -1.086638 1.375392 -1.125630 0.914276 4.107037 -0.471391 -1.182773 -0.000000 -0.000000 -0.000000 1.710090 -7.716844 -3.464171 0.000000 0.000000 0.000000 -0.640204 -1.994684 -77.013170 6.401017 -10.925489 1.756965 -0.211700 -0.779958 3.402848 -3.770345 8.494629 12.357297 7.410608 11.555751 -1.302236 1.156701 8.872092 5.197107 0.000003 -0.000002 -0.000003 2.365560 3.558893 -6.752272 -0.007897 0.227187 -17.059743 0.031914 0.161701 -12.913590 -0.000001 -0.000000 -0.000001 -1.944294 5.590014 -11.373862 0.112398 0.632615 -24.756936 0.028388 0.020306 -9.464946 0.000000 -0.000001 -0.000001 -4.875004 9.973654 -7.908307 -0.031575 0.293457 -30.105234 0.075683 0.691003 -12.622488 -0.000000 0.000000 0.000003 -6.427784 11.248470 -19.851991 0.029337 0.211363 -30.908754 0.009500 0.124056 -11.510450 0.000000 0.000001 -0.000002 2.108044 10.186222 3.925885 0.000000 0.000000 0.000000 1.704446 4.137054 75.329405 15.726314 16.016515 -5.167386 -4.943596 -0.670162 -0.596694 -0.464256 -8.992508 -6.084825 7.444341 -11.614548 1.291598 1.121859 -8.850198 -5.182476 -0.000003 -0.000001 0.000000 2.415113 -3.647888 8.343652 -0.045931 -0.188496 18.630253 -0.057310 -0.137336 14.481642 -0.000000 -0.000001 -0.000004 -1.985543 -5.700730 13.541263 0.094744 -0.637340 26.924210 -0.057960 -0.061579 11.632775 -0.000001 0.000000 -0.000002 -4.982045 -10.062122 10.706129 -0.023998 -0.331201 32.937361 0.106070 -0.688846 15.454602 -0.000001 -0.000002 -0.000001 -6.468524 -11.288253 23.243627 0.067319 -0.216372 34.333291 -0.042670 -0.081309 14.933104 0.000001 -0.000002 0.000002 -2.180708 11.057177 9.938433 9.705161 -6.398097 0.270928 -4.689879 0.588708 -6.351829 -0.000054 0.013855 0.000001 0.000000 0.000000 -0.000000 -0.619053 -5.950270 1.700002 8.320898 3.340814 -0.662545 -3.539742 0.187837 0.458676 0.038755 0.122571 -0.040138 -0.000000 -0.000000 0.000000 
0.762304 97.561676 -0.921330 -3.998262 5.936678 -1.750930 4.953133 -0.314308 1.100702 5.780770 -0.096299 1.938784 0.000000 0.000000 0.000000 -4.313798 -0.587795 -1.059323 1.415382 -1.142938 0.891898 4.072205 -0.494247 -1.181361 -0.000000 -0.000000 -0.000000 1.725175 -7.668273 -3.419643 0.000000 0.000000 0.000000 -0.663469 -1.883001 -77.088964 6.401420 -10.863920 1.697803 -0.197289 -0.886263 3.455032 -3.774906 8.496042 12.356093 7.405253 11.551455 -1.297594 1.159390 8.871949 5.192134 -0.000002 -0.000001 -0.000004 2.390001 3.891193 -6.747924 -0.007880 0.227177 -17.044165 0.031777 0.161702 -12.895547 0.000002 -0.000000 -0.000001 -1.920718 5.826086 -11.342076 0.112326 0.632558 -24.738954 0.028329 0.020214 -9.444795 0.000001 0.000000 0.000004 -4.854187 10.148924 -7.869567 -0.031527 0.293376 -30.088083 0.075512 0.690880 -12.602863 0.000001 -0.000000 -0.000002 -6.388007 11.353678 -19.828799 0.029400 0.211322 -30.898680 0.009404 0.124022 -11.498488 -0.000000 0.000000 0.000003 2.143770 10.163303 3.767667 0.000000 0.000000 0.000000 1.868295 4.550494 75.382052 15.821525 16.571748 -5.763653 -5.230325 -0.788505 -0.468305 -0.464245 -8.992502 -6.084826 7.444315 -11.614516 1.291595 1.121865 -8.850195 -5.182476 -0.000000 0.000001 0.000001 2.415135 -3.647874 8.343608 -0.045880 -0.188527 18.630225 -0.057341 -0.137324 14.481599 0.000001 -0.000001 -0.000001 -1.985477 -5.700724 13.541296 0.094761 -0.637310 26.924191 -0.057984 -0.061540 11.632780 -0.000002 0.000002 0.000001 -4.982025 -10.062146 10.706079 -0.023976 -0.331195 32.937430 0.106092 -0.688844 15.454579 0.000001 -0.000000 0.000000 -6.468524 -11.288266 23.243629 0.067384 -0.216354 34.333322 -0.042716 -0.081284 14.933099 -0.000000 -0.000002 0.000000 -2.084355 11.082043 9.820681 9.784238 -6.330338 0.278296 -4.843969 0.624405 -6.264664 -0.000121 0.013848 0.000004 0.000000 -0.000001 -0.000000 -0.619533 -5.999396 1.605257 8.391831 3.464023 -0.682046 -3.619702 0.198040 0.543721 0.073573 0.176730 -0.031143 -0.000000 -0.000000 0.000000 
0.938943 97.542702 -0.849282 -3.911329 5.839698 -1.773250 4.912511 -0.305266 1.109488 5.773950 -0.091454 1.936357 0.000000 0.000000 0.000000 -4.297131 -0.582285 -1.054468 1.394790 -1.143805 0.871364 4.049760 -0.507421 -1.134739 -0.000000 -0.000000 0.000000 1.736350 -7.615506 -3.398644 0.000000 0.000000 0.000000 -0.683188 -1.787387 -77.118532 6.429663 -10.835442 1.658470 -0.182038 -0.982552 3.540790 -3.774014 8.519685 12.359902 7.396402 11.544276 -1.289710 1.142228 8.806195 5.170890 0.000000 0.000001 0.000000 2.376648 3.922608 -6.679035 -0.007979 0.227124 -16.995717 0.031673 0.161690 -12.847585 -0.000001 -0.000000 -0.000003 -1.916473 5.871974 -11.333400 0.112278 0.632534 -24.733647 0.028282 0.020180 -9.438997 -0.000000 -0.000001 -0.000007 -4.835775 10.220190 -7.914588 -0.031532 0.293555 -30.121769 0.075833 0.691040 -12.635480 -0.000000 -0.000000 -0.000001 -6.320917 11.443575 -19.933950 0.029594 0.211630 -30.970458 0.009604 0.124303 -11.568050 0.000000 0.000000 -0.000002 2.177288 10.135589 3.620688 0.000000 0.000000 0.000000 1.959051 4.933513 75.428907 15.740910 17.064215 -6.286255 -5.433554 -0.728891 -0.390469 -0.464221 -8.992517 -6.084877 7.444294 -11.614507 1.291608 1.121860 -8.850185 -5.182491 -0.000001 -0.000003 -0.000000 2.415395 -3.653170 8.343841 -0.045937 -0.188516 18.630212 -0.057326 -0.137335 14.481620 -0.000002 0.000000 -0.000002 -1.985530 -5.700703 13.541221 0.094807 -0.637349 26.924245 -0.057954 -0.061560 11.632779 -0.000000 0.000001 0.000003 -4.982048 -10.062140 10.706125 -0.023995 -0.331159 32.937378 0.106082 -0.688848 15.454544 0.000000 0.000002 0.000001 -6.468538 -11.288233 23.243694 0.067337 -0.216388 34.333298 -0.042675 -0.081306 14.933119 -0.000001 0.000001 0.000003 -2.090027 11.002823 9.709084 9.908983 -6.185518 0.306347 -5.014448 0.675652 -6.190127 -0.000075 0.013844 -0.000002 0.000000 -0.000000 -0.000000 -0.695825 -6.032394 1.501119 8.442354 3.518344 -0.680754 -3.703157 0.211469 0.632367 0.115108 0.275681 -0.034801 -0.000000 -0.000000 0.000000 
1.126899 97.518784 -0.764102 -3.830184 5.752284 -1.810131 4.884203 -0.292476 1.111198 5.773497 -0.086207 1.957465 0.000000 0.000000 0.000000 -4.264755 -0.578404 -1.023406 1.240539 -1.139639 0.779122 4.059604 -0.539381 -1.054021 -0.000000 -0.000000 0.000000 1.728873 -7.543037 -3.464690 0.000000 0.000000 0.000000 -0.761512 -1.733393 -77.093137 6.407572 -10.788644 1.590168 -0.166695 -1.071412 3.629973 -3.797234 8.485693 12.339891 7.398213 11.564328 -1.274056 1.164600 8.855256 5.169172 -0.000002 -0.000000 -0.000001 2.349883 4.078849 -6.511395 -0.008090 0.227034 -16.875021 0.031202 0.161600 -12.727407 0.000000 -0.000001 0.000001 -1.919102 6.011999 -11.207569 0.111878 0.632207 -24.650271 0.027955 0.019714 -9.355547 -0.000000 -0.000001 -0.000002 -4.826360 10.366911 -7.816178 -0.031576 0.293181 -30.063364 0.075249 0.690739 -12.575566 0.000000 0.000000 -0.000001 -6.255270 11.587064 -19.876279 0.029451 0.211493 -30.937134 0.009566 0.124163 -11.532606 -0.000000 0.000000 0.000001 2.218204 10.107012 3.436442 0.000000 0.000000 0.000000 1.946280 5.291987 75.488863 15.732350 17.509202 -6.845764 -5.618949 -0.764922 -0.182863 -0.464195 -8.992504 -6.084807 7.444282 -11.614529 1.291642 1.121902 -8.850191 -5.182480 0.000002 0.000000 0.000002 2.415668 -3.659374 8.348989 -0.045884 -0.188518 18.630231 -0.057324 -0.137321 14.481592 0.000003 0.000001 -0.000002 -1.985482 -5.700727 13.541323 0.094769 -0.637334 26.924251 -0.057926 -0.061531 11.632779 0.000000 -0.000001 0.000001 -4.982021 -10.062140 10.706125 -0.023977 -0.331173 32.937389 0.106090 -0.688860 15.454589 -0.000000 0.000002 0.000001 -6.468536 -11.288274 23.243701 0.067394 -0.216386 34.333223 -0.042679 -0.081323 14.933129 0.000001 -0.000002 0.000002 -2.108872 10.971043 9.612199 10.061547 -6.078198 0.332668 -5.205992 0.705185 -6.100170 -0.000105 0.013847 0.000000 -0.000000 0.000000 0.000000 -0.756496 -6.087217 1.407003 8.492872 3.614156 -0.675691 -3.787561 0.204538 0.730842 0.122882 0.367989 -0.059678 0.000000 0.000000 -0.000000 
1.332874 97.493965 -0.657239 -3.805969 5.619628 -1.823802 4.953254 -0.265314 1.124410 5.718727 -0.064780 1.934557 0.000000 0.000000 0.000000 -4.278896 -0.552732 -1.031066 1.201340 -1.152124 0.779611 4.014439 -0.565041 -0.967063 -0.000000 0.000000 -0.000000 1.746323 -7.507060 -3.396549 0.000000 0.000000 0.000000 -0.792435 -1.661102 -77.164137 6.396785 -10.768337 1.535218 -0.138154 -1.273585 3.717122 -3.802022 8.505193 12.334791 7.368766 11.521853 -1.265383 1.177650 8.871243 5.157893 0.000002 0.000000 0.000000 2.351593 4.676492 -6.329616 -0.008191 0.226885 -16.726310 0.030634 0.161581 -12.577976 -0.000002 0.000000 0.000002 -1.884008 6.498485 -11.062837 0.110783 0.631923 -24.560061 0.027621 0.019250 -9.261080 -0.000000 0.000000 0.000000 -4.758847 10.810130 -7.743173 -0.031559 0.292966 -30.035511 0.074956 0.690641 -12.542372 -0.000000 -0.000000 -0.000001 -6.099417 11.974641 -19.931214 0.029641 0.211685 -30.991481 0.009629 0.124368 -11.580422 0.000000 0.000000 -0.000004 2.243944 10.085131 3.326713 0.000000 0.000000 0.000000 1.936966 5.597694 75.529359 15.555315 17.920623 -7.363484 -5.719846 -0.784469 -0.013885 -0.464194 -8.992501 -6.084829 7.444290 -11.614499 1.291642 1.121836 -8.850185 -5.182499 -0.000001 -0.000000 0.000001 2.415980 -3.667198 8.355522 -0.045902 -0.188479 18.634494 -0.057307 -0.137323 14.485861 -0.000000 0.000000 -0.000000 -1.985543 -5.700735 13.546230 0.094776 -0.637328 26.924199 -0.057959 -0.061594 11.632791 -0.000000 0.000000 0.000002 -4.982051 -10.062141 10.710485 -0.023976 -0.331215 32.937382 0.106082 -0.688826 15.454580 -0.000001 -0.000001 0.000000 -6.471638 -11.281135 23.243832 0.067380 -0.216346 34.333271 -0.042723 -0.081288 14.933102 -0.000002 0.000002 0.000002 -2.018011 10.966619 9.484421 10.188080 -5.978706 0.342957 -5.418471 0.769642 -5.989264 -0.000093 0.013848 0.000001 -0.000000 0.000000 -0.000000 -0.755483 -6.167170 1.281540 8.560731 3.709668 -0.670015 -3.904187 0.225173 0.836377 0.127669 0.506391 -0.106743 -0.000000 0.000000 -0.000000 
